<svg width="137" height="43" viewBox="0 0 137 43" fill="none" xmlns="http://www.w3.org/2000/svg">
<path d="M111.955 20.0588C111.938 19.7084 111.671 19.378 111.348 19.318C110.884 19.2312 110.584 19.3513 110.423 19.7351C109.829 21.1466 109.032 22.4179 107.981 23.5392C106.946 24.6437 105.665 25.1109 104.187 25.1008C103.736 25.0975 103.676 24.9574 103.87 24.5536C104.22 23.8195 104.664 23.1154 104.891 22.3446C105.261 21.0732 105.725 19.8218 105.812 18.4704C105.915 16.8653 105.949 15.287 105.398 13.7386C105.071 12.821 104.494 12.0835 103.729 11.5563C103.032 11.0724 102.164 10.8555 101.324 10.7388C99.7419 10.5185 98.2937 11.0057 96.9355 11.7865C96.2081 12.207 95.5941 12.7776 94.8933 13.3149C94.8633 13.0346 94.9801 12.8343 95.0301 12.6208C95.177 11.9868 94.9968 11.4162 94.5563 11.236C93.7755 10.9156 92.978 10.8622 92.1738 11.1459C91.8968 11.2426 91.7033 11.4195 91.6065 11.7165C91.2361 12.8844 90.8357 14.0423 90.5854 15.2402C90.4519 15.8809 90.255 16.4983 90.0615 17.1223C89.7612 18.1 89.4475 19.0744 89.2239 20.0755C89.0237 20.9831 88.8936 21.9341 88.4664 22.7617C87.6522 24.3334 86.5744 25.7115 85.1195 26.766C84.649 27.1063 84.1451 27.2465 83.6212 27.0262C83.1207 26.816 83.0239 26.3088 82.9872 25.8183C82.9238 24.9774 83.054 24.1465 83.0907 23.3089C83.1207 22.6349 83.4043 22.0175 83.5545 21.3702C83.8648 20.0087 84.1852 18.6506 84.6457 17.3258C84.9527 16.4415 85.2029 15.5339 85.4699 14.6363C85.5433 14.3927 85.6067 14.1424 85.7469 13.9322C86.1206 13.3749 86.234 12.7276 86.4076 12.1002C86.4977 11.7765 86.3775 11.5496 86.0538 11.3995C85.4966 11.1392 84.916 11.0524 84.3086 11.0324C83.2475 10.999 82.9772 11.4429 82.7103 12.2304C82.1997 13.7253 81.7626 15.2469 81.212 16.7319C81.0919 17.0555 80.9717 17.3859 80.905 17.7229C80.6681 18.8775 80.1875 19.9553 79.7337 21.0198C79.2699 22.111 78.6826 23.1654 77.9985 24.1565C76.9774 25.6414 75.6527 26.6792 73.9342 27.2098C73.0332 27.4867 72.1623 26.9361 72.0388 25.9951C71.9087 25.0074 71.9454 24.0063 72.2357 23.062C72.8063 21.22 73.1 19.3113 73.7373 17.4827C74.121 16.3848 74.4547 15.2603 74.8218 14.1491C75.0387 13.4917 75.2289 12.8277 75.3957 12.1569C75.5125 11.6898 75.3557 11.4962 74.9252 11.286C74.2579 10.9623 73.5838 10.999 72.8964 11.1826C72.4125 11.3127 72.0655 11.5763 71.912 12.0769C71.7218 12.6842 71.5116 13.2882 71.3047 13.8921C70.7207 15.5739 70.1001 17.2457 69.6796 18.9809C69.3426 20.3724 68.772 21.6738 67.9811 22.8718C67.3438 23.8361 66.6797 24.7872 65.9656 25.6981C65.3449 26.489 64.5741 27.0896 63.6131 27.4233C63.0992 27.6035 62.5786 27.2732 62.5486 26.7359C62.5286 26.3922 62.5453 26.0485 62.602 25.7015C62.7889 24.5569 63.1226 23.4457 63.4229 22.3279C63.6598 21.4536 63.8066 20.5593 64.0736 19.695C64.464 18.4237 64.8644 17.1523 65.0613 15.8376C65.2015 14.8999 65.1781 13.9322 64.9078 13.0212C64.5641 11.86 63.8233 11.0991 62.5486 10.8555C61.1905 10.5953 59.9291 10.7554 58.7178 11.3794C57.1161 12.207 55.8781 13.4684 54.6935 14.7898C54.4833 15.0234 54.3198 15.297 54.0195 15.4939C53.9527 15.2169 54.0462 15 54.1162 14.7764C54.3431 14.039 54.5801 13.3048 54.7803 12.5607C54.9071 12.0835 54.867 11.6297 54.3765 11.3427C53.6824 10.939 52.935 10.8555 52.1775 11.0724C51.767 11.1926 51.3933 11.4595 51.2965 11.9234C51.0363 13.1614 50.5424 14.3293 50.2921 15.5739C50.1353 16.3615 49.8216 17.1189 49.6514 17.9165C49.4846 18.704 49.2644 19.4982 48.8673 20.1989C48.4702 20.9063 48.1265 21.6405 47.7094 22.3379C47.1688 23.2422 46.6415 24.1465 45.9508 24.9473C45.0098 26.0318 43.9387 26.9094 42.5138 27.2932C41.8331 27.4767 40.9521 27.2565 40.4949 26.7393C39.8409 25.9985 39.6807 25.1042 39.8576 24.1965C40.0578 23.1588 40.3314 22.1343 40.892 21.1933C41.2558 20.586 41.6462 20.002 42.0433 19.4214C42.5271 18.7073 42.9976 17.9865 43.5249 17.3025C43.7451 17.0188 43.952 16.6785 43.8886 16.3114C43.7785 15.6741 43.6984 15.0267 43.3947 14.4294C42.9909 13.6385 42.2669 13.1313 41.7163 12.4706C41.0088 11.623 40.1913 10.8689 39.4271 10.0714C39.1168 9.74769 38.9132 9.35728 39.0634 8.91013C39.2202 8.43629 39.2069 7.9591 39.1702 7.48526C39.1168 6.8112 38.5228 5.91358 37.5117 5.98699C36.3138 6.07041 35.3294 7.44856 35.6464 8.6999C35.7966 9.29387 35.9834 9.88117 36.2571 10.4318C36.4907 10.9023 36.5073 11.3794 36.3772 11.87C35.9734 13.4116 35.533 14.9433 34.9323 16.4249C34.3116 17.9532 33.6876 19.4848 32.9302 20.953C32.5531 21.6872 32.1059 22.3813 31.6855 23.092C30.8112 24.5636 29.7834 25.8883 28.3586 26.856C27.6111 27.3633 26.4666 27.2765 26.3932 25.9184C26.3231 24.627 26.4065 23.359 26.7535 22.0909C27.2441 20.309 27.6178 18.5004 28.2251 16.7485C28.4554 16.0845 28.7023 15.4038 28.8491 14.7063C28.9058 14.4427 28.9759 14.1825 29.1227 13.9589C29.5032 13.3883 29.6233 12.7275 29.8001 12.0902C29.8836 11.7865 29.7768 11.5596 29.4698 11.4095C28.9025 11.1358 28.3085 11.0491 27.6879 11.0291C26.6234 10.9924 26.3531 11.4762 26.0962 12.237C25.599 13.7086 25.1652 15.2035 24.6279 16.6651C24.4844 17.0522 24.3643 17.4493 24.2709 17.8464C24.0072 18.9509 23.5701 20.002 23.123 21.0265C22.6458 22.111 22.0685 23.1688 21.3844 24.1632C20.3533 25.6581 19.0152 26.6959 17.2767 27.2231C16.4558 27.4734 15.5615 26.9061 15.4314 26.0652C15.2745 25.0474 15.3613 24.033 15.6216 23.052C15.9186 21.9341 16.2222 20.8196 16.4625 19.685C16.5626 19.2045 16.656 18.7106 16.8496 18.2635C17.3634 17.0756 17.5069 15.7708 18.0542 14.5929C18.3345 13.9889 18.4379 13.3215 18.6515 12.6909C18.9785 11.7131 18.8617 11.4362 17.894 11.1258C16.6494 10.7254 15.5281 11.316 15.1411 12.5374C14.784 13.6652 14.3769 14.7764 13.9965 15.8976C13.7562 16.6051 13.4593 17.2991 13.3091 18.0232C13.0488 19.2712 12.6217 20.4525 12.0344 21.567C11.5239 22.5414 10.8798 23.4391 10.2158 24.3233C9.58176 25.1642 8.83096 25.8783 8.01008 26.5124C7.52956 26.8828 6.97564 27.1697 6.3483 27.2465C5.2538 27.38 4.2427 26.8193 3.88232 25.7916C3.32839 24.2132 3.57198 22.5915 3.83894 21.0131C4.02914 19.8819 4.38619 18.7674 4.62644 17.6362C4.8934 16.3715 5.25379 15.1335 5.6342 13.8988C5.80438 13.3482 5.91784 13.2681 6.48845 13.2681C7.42278 13.2681 8.35713 13.2581 9.29146 13.2715C9.72526 13.2782 10.1424 13.2147 10.5561 13.1146C11.5305 12.8811 11.9777 12.0935 11.684 11.1859C11.5772 10.8522 11.377 10.672 11.0233 10.6553C10.3026 10.622 9.5851 10.6053 8.86433 10.6787C8.32041 10.7321 7.77315 10.7454 7.22923 10.652C6.89554 10.5953 6.76208 10.4017 6.8088 10.0547C6.8455 9.77439 7.05571 9.58419 7.12579 9.33058C7.51621 7.95911 8.02343 6.63101 8.4906 5.28624C8.8343 4.29517 9.07122 3.27074 9.48833 2.30303C9.59845 2.04609 9.70857 1.78582 9.78198 1.51887C9.89544 1.11176 9.79866 0.77473 9.42493 0.514451C8.81094 0.0873259 8.13021 -0.0327994 7.40944 0.00724358C6.85551 0.0372758 6.44173 0.27419 6.27822 0.844802C5.9779 1.89593 5.5074 2.88366 5.15702 3.91477C4.81666 4.91918 4.39287 5.89689 4.11257 6.92466C3.8356 7.95243 3.23495 8.87008 3.08145 9.94123C3.05475 10.1381 2.90126 10.2382 2.68436 10.2683C2.07036 10.3483 1.45973 10.2983 0.845733 10.305C0.585454 10.3083 0.375227 10.3784 0.218392 10.5886C-0.29883 11.2827 0.158322 12.4773 1.0059 12.6441C1.22947 12.6875 1.45304 12.7276 1.66994 12.7843C2.11709 12.8977 2.24724 13.1146 2.09708 13.5418C1.52313 15.1769 1.19944 16.8787 0.778991 18.5538C0.398583 20.0821 0.248422 21.6471 0.17501 23.2222C0.111609 24.5603 0.104937 25.8917 0.615485 27.1564C1.1861 28.5712 2.13711 29.5857 3.71547 29.8526C4.33948 29.9594 4.96682 29.8826 5.59416 29.9027C5.93119 29.9127 6.25152 29.8392 6.56853 29.7158C8.31374 29.0317 9.73527 27.9305 10.8698 26.4423C11.0734 26.1753 11.2435 25.8717 11.5305 25.6514C11.644 25.8316 11.5873 25.9918 11.6039 26.1453C11.6607 26.7359 11.654 27.3332 11.941 27.8905C12.3781 28.7414 13.0588 29.3554 13.9198 29.6624C15.3947 30.1896 16.8696 29.916 18.2878 29.3587C19.2355 28.985 20.053 28.411 20.7771 27.6703C21.618 26.8093 22.4356 25.9417 23.0229 24.8839C23.0662 24.8039 23.0996 24.6837 23.2131 24.7204C23.3299 24.7571 23.2831 24.8839 23.2631 24.964C23.0496 25.7983 23.2364 26.6091 23.4166 27.41C23.8738 29.4755 25.7558 30.0995 27.5177 29.4322C29.65 28.6246 30.9947 26.9161 32.2828 25.1809C33.0736 24.1198 33.681 22.9318 34.2916 21.7506C34.7755 20.8162 35.226 19.8752 35.6531 18.9175C36.494 17.0422 37.2047 15.1268 37.742 13.1413C37.7954 12.9445 37.8187 12.6975 38.0924 12.6608C38.346 12.6241 38.5228 12.7776 38.6763 12.9444C38.9566 13.2481 39.2469 13.5451 39.4839 13.8821C39.7708 14.2926 40.1779 14.6563 40.3014 15.1435C40.4716 15.8042 40.2614 16.4482 39.8876 16.9955C38.8298 18.5438 37.8087 20.1188 36.8911 21.7573C36.2504 22.9018 36.0902 24.1598 36.1603 25.4345C36.2771 27.6536 37.3583 29.0551 39.3204 29.6891C41.1523 30.2831 42.9342 29.8793 44.5493 28.8549C45.6572 28.1541 46.5281 27.2064 47.2088 26.0819C47.2555 26.0052 47.2923 25.9084 47.4157 25.9084C47.4624 25.9985 47.4224 26.0852 47.409 26.1753C47.3089 26.8494 47.052 27.4867 46.9152 28.1508C46.7884 28.7681 46.9886 29.312 47.4591 29.4655C48.3434 29.7558 49.2377 29.7825 50.1186 29.4221C50.3455 29.3287 50.4723 29.1952 50.5257 28.9383C50.6892 28.1441 50.8594 27.3466 51.0596 26.5657C51.4467 25.0575 51.8805 23.5625 52.2609 22.0509C52.6713 20.4292 53.2119 18.8541 54.3098 17.5561C55.2141 16.4883 56.1317 15.4238 57.3731 14.7164C58.0371 14.3393 58.5643 13.7453 59.3619 13.5718C60.4163 13.3415 61.4908 14.3026 61.2739 15.3571C60.9035 17.1423 60.6265 18.9542 59.9959 20.6728C59.4887 22.0576 59.4386 23.5458 58.9681 24.9373C58.7279 25.6514 58.6711 26.3989 58.7112 27.1497C58.7445 27.7704 58.8613 28.3977 59.2484 28.8782C59.8891 29.6824 60.8301 29.9794 61.8112 29.9694C63.7099 29.946 65.2382 29.0851 66.4661 27.6769C67.0468 27.0096 67.6841 26.3856 68.188 25.6414C68.2581 26.1186 68.2681 26.5791 68.3115 27.0363C68.4116 28.0573 69.5395 29.4021 70.5439 29.6924C72.0788 30.1362 73.5537 29.9093 74.992 29.3254C75.8829 28.9616 76.6504 28.4144 77.3478 27.7203C78.1086 26.9628 78.786 26.1486 79.4334 25.3011C79.5802 25.1108 79.5769 24.8172 79.8105 24.6871C79.9206 24.7605 79.9039 24.8439 79.8872 24.9206C79.667 25.7782 79.8605 26.6191 80.0407 27.4467C80.3444 28.8549 81.6458 29.8526 82.9305 29.7024C84.1451 29.559 85.1862 29.005 86.1339 28.2709C86.5577 27.9406 86.9281 27.5401 87.3586 27.1397C87.3552 27.757 87.0783 28.2475 86.9815 28.7815C86.6812 30.4432 86.164 32.0583 85.9304 33.7368C85.8069 34.6144 85.56 35.4786 85.4031 36.3596C85.1062 38.0114 84.7491 39.6498 84.4221 41.2949C84.312 41.8421 84.4988 42.1258 85.0161 42.3494C85.6334 42.613 86.2774 42.5996 86.9048 42.5028C87.6589 42.3861 87.9325 42.1191 88.026 41.4217C88.0627 41.1581 88.0961 40.8945 88.1461 40.6308C88.403 39.2727 88.7267 37.9246 88.9102 36.5598C89.1272 34.9581 89.6344 33.4264 89.8613 31.8247C89.9981 30.877 90.3351 29.9494 90.5053 28.9917C90.5387 28.8115 90.6087 28.6313 90.6922 28.4678C90.8724 28.1074 91.0926 28.0807 91.3762 28.371C92.374 29.3988 93.6086 29.876 95.0235 29.9027C96.0879 29.9227 97.1357 29.8893 98.1702 29.5056C98.7975 29.272 99.3915 29.0017 99.9521 28.658C100.609 28.2509 101.233 27.7971 101.727 27.1897C102.054 26.786 102.522 26.5457 103.005 26.7559C104.083 27.2231 105.114 26.9462 106.125 26.6392C108.014 26.0685 109.285 24.667 110.43 23.1654C110.734 22.765 110.964 22.2811 111.238 21.8407C111.461 21.4803 111.645 21.0932 111.845 20.7161C111.935 20.5126 111.968 20.289 111.955 20.0588ZM102.271 16.6084C102.241 18.5238 101.777 20.2523 101.123 21.9374C100.987 22.2878 100.726 22.5347 100.346 22.6248C100.166 22.6682 99.9855 22.7283 99.8019 22.7617C98.624 22.9752 98.4472 23.7661 98.7675 24.7238C98.7875 24.7872 98.8242 24.8439 98.8509 24.904C99.1779 25.6014 99.0311 25.9017 98.3804 26.3455C97.683 26.8227 96.9322 27.123 96.1213 27.2999C95.0936 27.5268 94.1125 27.3533 93.1615 26.9361C92.6209 26.6992 92.2305 26.2788 91.83 25.8717C91.6899 25.7282 91.6132 25.5513 91.6465 25.3645C91.7333 24.9206 91.7733 24.4735 91.8968 24.033C92.2639 22.6983 92.5909 21.3535 92.9346 20.0121C93.2249 18.8775 93.5753 17.7563 94.0091 16.6685C94.2593 16.0411 94.8199 15.6207 95.3438 15.2102C96.4317 14.356 97.6963 13.8354 99.0344 13.5618C100.376 13.2882 101.794 13.7653 102.131 15.4338C102.218 15.8509 102.305 16.268 102.271 16.6084Z" fill="white"/>
<path d="M127.84 31.6483C127.739 31.6483 127.627 31.6483 127.506 31.6483C127.384 31.6686 127.262 31.6787 127.14 31.6787C126.288 31.6787 125.416 31.5773 124.524 31.3745C123.652 31.1919 122.881 30.9282 122.211 30.5834C121.988 30.4617 121.633 30.2994 121.146 30.0966C120.68 29.8937 120.203 29.6909 119.716 29.4881C119.25 29.2852 118.905 29.1229 118.682 29.0012C118.155 28.7375 117.698 28.6057 117.313 28.6057C116.907 28.6057 116.552 28.7274 116.248 28.9708C115.944 29.2142 115.639 29.5185 115.335 29.8836C115.051 30.2284 114.716 30.5935 114.331 30.9789C114.108 31.2021 113.885 31.3643 113.662 31.4658C113.439 31.5672 113.236 31.6179 113.053 31.6179C112.729 31.6179 112.465 31.4962 112.262 31.2528C112.059 31.0094 111.958 30.7254 111.958 30.4008C111.958 30.1372 112.029 29.8735 112.171 29.6098C112.333 29.3461 112.576 29.1128 112.901 28.91C113.996 28.2203 115.142 27.3988 116.339 26.4454C117.556 25.4718 118.773 24.4373 119.99 23.342C121.207 22.2466 122.353 21.1817 123.428 20.1472C124.99 18.6665 126.41 17.3075 127.688 16.0701C128.986 14.8328 130.315 13.5346 131.674 12.1756C131.187 12.3784 130.609 12.5813 129.94 12.7841C129.291 12.9667 128.631 13.1188 127.962 13.2405C127.313 13.3419 126.745 13.3926 126.258 13.3926C125.71 13.3926 125.092 13.3622 124.402 13.3013C123.712 13.2405 123.043 13.1796 122.394 13.1188C121.745 13.0377 121.207 12.9971 120.781 12.9971C120.416 12.9971 120.021 13.1086 119.595 13.3318C119.169 13.5549 118.804 13.8693 118.499 14.275C118.195 14.6604 118.023 15.0965 117.982 15.5833C117.982 15.705 117.881 15.7659 117.678 15.7659C117.597 15.7659 117.536 15.705 117.495 15.5833C117.475 15.5022 117.465 15.4312 117.465 15.3703C117.465 15.3095 117.465 15.2385 117.465 15.1573C117.465 14.5488 117.627 13.9302 117.952 13.3013C118.276 12.6523 118.662 12.0742 119.108 11.5671C119.554 11.0599 119.94 10.705 120.264 10.5021C120.609 10.2993 120.994 10.1573 121.42 10.0762C121.867 9.99503 122.323 9.95447 122.789 9.95447C123.317 9.95447 123.834 9.99503 124.341 10.0762C124.848 10.137 125.305 10.2182 125.71 10.3196C126.725 10.5427 127.688 10.7253 128.601 10.8673C129.514 10.989 130.315 11.0498 131.005 11.0498C131.897 11.0498 132.495 10.9281 132.8 10.6847C133.084 10.4413 133.479 10.2587 133.986 10.137C134.493 9.99503 134.97 9.92404 135.416 9.92404C135.822 9.92404 136.116 9.96461 136.299 10.0457C134.412 11.6888 132.506 13.3825 130.579 15.1269C128.672 16.8713 126.846 18.5854 125.102 20.2689C123.885 21.4454 122.668 22.632 121.451 23.8288C120.234 25.0256 119.027 26.2122 117.83 27.3887C118.114 27.5306 118.469 27.6625 118.895 27.7842C119.341 27.9059 119.818 28.0276 120.325 28.1493C120.69 28.2304 121.228 28.3521 121.938 28.5144C122.647 28.6564 123.439 28.7883 124.311 28.91C125.183 29.0317 126.025 29.0925 126.836 29.0925C127.871 29.0925 128.763 28.9404 129.514 28.6361C130.264 28.3319 130.639 27.7538 130.639 26.9018C130.639 26.5164 130.497 26.2223 130.213 26.0195C130.193 25.9992 130.224 25.9485 130.305 25.8673C130.386 25.7659 130.447 25.7152 130.487 25.7152C131.055 25.7355 131.552 25.9485 131.978 26.3542C132.424 26.7396 132.648 27.2264 132.648 27.8146C132.648 28.342 132.465 28.8897 132.1 29.4576C131.735 30.0256 131.187 30.5225 130.457 30.9485C129.747 31.3542 128.875 31.5875 127.84 31.6483Z" fill="white"/>
</svg>
